<svg width="60" height="60" viewBox="0 0 60 60" fill="none" xmlns="http://www.w3.org/2000/svg">
<path d="M38.75 49.8125L28.125 39.1875L31.625 35.6875L38.75 42.8125L52.875 28.6875L56.375 32.1875L38.75 49.8125ZM52.5 25H47.5V12.5H42.5V20H17.5V12.5H12.5V47.5H27.5V52.5H12.5C11.125 52.5 9.94792 52.0104 8.96875 51.0312C7.98958 50.0521 7.5 48.875 7.5 47.5V12.5C7.5 11.125 7.98958 9.94792 8.96875 8.96875C9.94792 7.98958 11.125 7.5 12.5 7.5H22.9375C23.3958 6.04167 24.2917 4.84375 25.625 3.90625C26.9583 2.96875 28.4167 2.5 30 2.5C31.6667 2.5 33.1563 2.96875 34.4688 3.90625C35.7813 4.84375 36.6667 6.04167 37.125 7.5H47.5C48.875 7.5 50.0521 7.98958 51.0313 8.96875C52.0104 9.94792 52.5 11.125 52.5 12.5V25ZM30 12.5C30.7083 12.5 31.3021 12.2604 31.7813 11.7812C32.2604 11.3021 32.5 10.7083 32.5 10C32.5 9.29167 32.2604 8.69792 31.7813 8.21875C31.3021 7.73958 30.7083 7.5 30 7.5C29.2917 7.5 28.6979 7.73958 28.2188 8.21875C27.7396 8.69792 27.5 9.29167 27.5 10C27.5 10.7083 27.7396 11.3021 28.2188 11.7812C28.6979 12.2604 29.2917 12.5 30 12.5Z" fill="#020441"/>
</svg>
